<?xml version="1.0" standalone="no"?>
<!DOCTYPE svg PUBLIC "-//W3C//DTD SVG 20010904//EN"
 "http://www.w3.org/TR/2001/REC-SVG-20010904/DTD/svg10.dtd">
<svg version="1.0" xmlns="http://www.w3.org/2000/svg"
 width="512.000000pt" height="512.000000pt" viewBox="0 0 512.000000 512.000000"
 preserveAspectRatio="xMidYMid meet">

<g transform="translate(0.000000,512.000000) scale(0.100000,-0.100000)"
fill="#000000" stroke="none">
<path d="M368 4956 c-85 -23 -157 -87 -196 -174 -14 -31 -17 -81 -20 -294 -4
-281 3 -343 45 -405 24 -35 24 -38 9 -63 -51 -77 -51 -78 -51 -385 l0 -290 28
-57 c32 -64 80 -111 146 -142 42 -19 67 -21 309 -24 l262 -3 0 -454 0 -453
-179 -4 -179 -3 -43 -30 c-23 -16 -53 -50 -66 -74 l-23 -45 2 -782 3 -782 30
-43 c17 -23 48 -52 70 -63 39 -21 53 -21 675 -24 439 -2 647 0 673 8 49 14
106 65 128 115 17 36 19 72 19 343 l0 302 300 0 300 0 0 -154 c0 -201 -1 -203
-132 -208 -111 -4 -158 -24 -203 -87 l-30 -43 -3 -166 c-3 -160 -2 -169 21
-212 16 -30 40 -55 72 -75 l48 -30 756 0 756 0 43 23 c27 14 54 41 73 69 l29
47 0 163 c0 144 -2 169 -20 203 -38 75 -110 110 -227 110 -65 0 -77 3 -98 25
-24 24 -25 28 -25 180 l0 155 513 0 c576 0 577 0 666 70 35 28 59 58 83 107
l33 68 0 945 c0 909 -1 947 -19 995 -26 65 -103 147 -169 176 l-52 24 -982 3
-982 2 -3 214 -3 213 -30 49 -31 49 31 49 30 49 0 311 c0 300 -1 312 -22 351
-30 55 -88 110 -148 137 l-50 23 -1060 2 c-834 1 -1070 -1 -1107 -11z m2166
-227 l26 -31 0 -239 c0 -244 -3 -269 -39 -296 -12 -10 -256 -12 -1064 -13
l-1048 0 -24 25 -25 24 0 256 0 256 25 24 24 25 1050 0 1049 0 26 -31z m-13
-802 c34 -26 39 -54 39 -231 l0 -175 -502 -3 c-489 -3 -504 -4 -549 -24 -55
-26 -120 -82 -150 -130 l-21 -34 -464 0 -465 0 -24 25 -25 24 0 256 0 256 25
24 24 25 1048 0 c808 -1 1052 -3 1064 -13z m2205 -651 l34 -34 0 -913 c0 -889
-1 -915 -20 -946 -13 -22 -31 -35 -59 -43 -27 -7 -510 -9 -1563 -8 -1436 3
-1524 4 -1549 21 -14 9 -31 29 -37 43 -9 18 -12 269 -12 935 l0 911 34 34 34
34 1552 0 1552 0 34 -34z m-3416 -983 c0 -853 3 -920 41 -995 26 -52 88 -111
147 -139 40 -20 66 -24 179 -27 l131 -4 -5 -281 c-3 -155 -6 -283 -7 -283 0
-1 -268 1 -593 4 l-593 5 0 522 c0 287 3 610 7 718 l6 197 164 0 c180 0 209 7
265 67 58 61 58 60 58 573 l0 470 100 0 100 0 0 -827z m2162 -1343 l3 -180
-335 0 -335 0 3 180 3 180 329 0 329 0 3 -180z m368 -485 l0 -105 -675 -2
c-371 -1 -685 -2 -697 -2 -22 -1 -23 2 -26 101 l-3 103 678 3 c373 1 688 3
701 5 22 2 22 0 22 -103z"/>
<path d="M1776 4545 c-42 -22 -55 -44 -55 -90 -1 -98 111 -138 173 -64 69 82
-25 204 -118 154z"/>
<path d="M2186 4545 c-41 -22 -55 -44 -55 -90 -1 -98 111 -138 173 -64 45 53
30 121 -34 154 -36 19 -48 19 -84 0z"/>
<path d="M507 4464 c-17 -18 14 -24 119 -24 95 0 114 3 114 15 0 12 -19 15
-113 15 -63 0 -117 -3 -120 -6z"/>
<path d="M1020 4455 c0 -13 16 -15 118 -13 153 4 151 22 -3 26 -99 2 -115 0
-115 -13z"/>
<path d="M1776 3725 c-42 -22 -55 -44 -56 -91 0 -95 113 -136 175 -62 68 81
-26 203 -119 153z"/>
<path d="M2186 3725 c-42 -22 -55 -44 -56 -91 0 -95 113 -136 175 -62 68 81
-26 203 -119 153z"/>
<path d="M507 3644 c-17 -18 14 -24 119 -24 95 0 114 3 114 15 0 12 -19 15
-113 15 -63 0 -117 -3 -120 -6z"/>
<path d="M1020 3635 c0 -13 16 -15 118 -13 153 4 151 22 -3 26 -99 2 -115 0
-115 -13z"/>
<path d="M2512 1643 c3 -16 16 -18 118 -18 96 0 115 3 115 15 0 12 -21 16
-118 18 -109 2 -118 1 -115 -15z"/>
<path d="M3025 1649 c-15 -23 15 -30 121 -27 89 2 109 6 109 18 0 12 -20 16
-112 18 -74 2 -114 -1 -118 -9z"/>
<path d="M3534 1649 c-13 -22 22 -29 126 -27 91 3 105 5 108 21 3 15 -7 17
-112 17 -73 0 -117 -4 -122 -11z"/>
</g>
</svg>
