<?xml version="1.0" standalone="no"?>
<!DOCTYPE svg PUBLIC "-//W3C//DTD SVG 20010904//EN"
 "http://www.w3.org/TR/2001/REC-SVG-20010904/DTD/svg10.dtd">
<svg version="1.0" xmlns="http://www.w3.org/2000/svg"
 width="512.000000pt" height="512.000000pt" viewBox="0 0 512.000000 512.000000"
 preserveAspectRatio="xMidYMid meet">

<g transform="translate(0.000000,512.000000) scale(0.100000,-0.100000)"
fill="#000000" stroke="none">
<path d="M2420 4754 c-208 -27 -407 -101 -580 -217 -96 -64 -273 -241 -337
-337 -95 -142 -163 -302 -199 -470 -28 -128 -26 -388 4 -536 67 -334 225 -678
473 -1031 43 -62 79 -115 79 -118 0 -3 -224 -5 -497 -5 -383 -1 -503 -4 -521
-13 -12 -7 -207 -290 -432 -628 l-410 -614 0 -188 c0 -186 0 -188 25 -212 l24
-25 2511 0 2511 0 24 25 c25 24 25 26 25 212 l0 188 -410 614 c-225 338 -420
621 -432 628 -18 9 -138 12 -520 13 -274 0 -498 2 -498 5 0 3 36 56 79 118
246 349 407 699 473 1027 30 152 32 411 4 540 -55 257 -169 466 -355 651 -182
182 -382 293 -631 350 -83 19 -331 33 -410 23z m310 -169 c235 -35 449 -144
620 -315 277 -277 382 -651 300 -1064 -94 -472 -435 -1028 -964 -1572 l-126
-129 -127 130 c-524 538 -862 1086 -963 1565 -84 396 21 786 285 1055 261 266
613 385 975 330z m-673 -2777 c34 -40 80 -94 103 -120 l42 -48 -247 0 c-150 0
-254 -4 -266 -10 -10 -6 -25 -23 -33 -38 -26 -51 -127 -425 -121 -449 3 -12
15 -32 27 -43 22 -20 31 -20 998 -20 967 0 976 0 998 20 12 11 24 31 28 44 5
21 -86 359 -118 439 -22 55 -30 57 -301 57 l-249 0 42 48 c23 26 69 80 103
120 l62 72 293 -2 294 -3 124 -260 c68 -143 133 -268 145 -277 19 -16 49 -18
305 -18 l283 0 51 -75 c27 -41 50 -76 50 -79 0 -3 -120 -6 -266 -8 -266 -3
-266 -3 -285 -27 -28 -34 -24 -57 31 -175 27 -59 50 -109 50 -111 0 -3 -738
-5 -1640 -5 -902 0 -1640 2 -1640 6 0 3 82 176 182 386 107 225 181 393 181
410 0 17 -9 38 -22 51 -20 21 -32 22 -231 27 l-210 5 52 78 51 77 536 0 536 0
62 -72z m2255 -100 c63 -95 123 -185 132 -200 l18 -28 -193 0 -194 1 -90 190
c-49 105 -91 195 -93 200 -2 5 63 9 151 9 l154 0 115 -172z m-3240 -165 c-5
-10 -82 -172 -172 -360 l-163 -343 -253 0 -254 0 240 360 240 360 185 0 c174
0 185 -1 177 -17z m1372 -143 c68 -63 92 -80 116 -80 23 0 49 17 117 80 l87
80 286 0 285 0 29 -102 c16 -57 31 -111 34 -120 4 -17 -41 -18 -838 -18 -797
0 -842 1 -838 18 3 9 18 63 34 120 l29 102 286 0 287 0 86 -80z m2394 -480
l52 -80 -253 0 -253 0 -37 75 c-20 42 -37 78 -37 80 0 3 107 5 238 5 l237 0
53 -80z m122 -320 l0 -80 -2400 0 -2400 0 0 80 0 80 2400 0 2400 0 0 -80z"/>
<path d="M2480 4107 c-49 -16 -133 -102 -148 -153 -7 -24 -12 -100 -12 -178
l0 -136 -136 0 c-78 0 -154 -5 -178 -12 -55 -16 -138 -99 -154 -154 -28 -94
-8 -169 63 -239 65 -66 99 -75 269 -75 l136 0 0 -136 c0 -78 5 -154 12 -178
16 -55 99 -138 154 -154 94 -28 169 -8 239 63 66 65 75 99 75 269 l0 136 136
0 c170 0 204 9 269 75 98 97 101 222 8 325 -61 68 -102 80 -275 80 l-138 0 0
136 c0 163 -10 200 -67 264 -65 72 -158 97 -253 67z m135 -172 c25 -24 25 -26
25 -215 0 -257 -17 -240 240 -240 189 0 191 0 215 -25 33 -32 33 -78 0 -110
-24 -25 -26 -25 -215 -25 -257 0 -240 17 -240 -240 0 -189 0 -191 -25 -215
-15 -16 -36 -25 -55 -25 -19 0 -40 9 -55 25 -25 24 -25 26 -25 215 0 257 17
240 -240 240 -189 0 -191 0 -215 25 -33 32 -33 78 0 110 24 25 26 25 215 25
257 0 240 -17 240 240 0 189 0 191 25 215 15 16 36 25 55 25 19 0 40 -9 55
-25z"/>
</g>
</svg>
