<?xml version="1.0" standalone="no"?>
<!DOCTYPE svg PUBLIC "-//W3C//DTD SVG 20010904//EN"
 "http://www.w3.org/TR/2001/REC-SVG-20010904/DTD/svg10.dtd">
<svg version="1.0" xmlns="http://www.w3.org/2000/svg"
 width="512.000000pt" height="512.000000pt" viewBox="0 0 512.000000 512.000000"
 preserveAspectRatio="xMidYMid meet">

<g transform="translate(0.000000,512.000000) scale(0.100000,-0.100000)"
fill="#000000" stroke="none">
<path d="M3867 4998 c-14 -13 -36 -58 -52 -105 l-28 -82 -56 -24 -56 -24 -79
39 c-44 21 -91 38 -105 38 -19 0 -55 -30 -144 -119 -117 -117 -119 -120 -115
-158 3 -21 20 -70 38 -110 l33 -71 -22 -54 -21 -53 -87 -30 c-127 -44 -123
-36 -123 -241 0 -141 3 -174 15 -184 8 -7 54 -27 101 -44 l86 -31 22 -54 22
-54 -44 -84 c-33 -64 -42 -90 -37 -112 9 -41 234 -261 266 -261 14 0 62 18
107 40 l82 39 53 -24 54 -23 33 -92 c19 -53 41 -97 54 -105 16 -12 56 -15 177
-15 190 0 189 -1 234 125 l32 88 54 22 54 21 87 -39 c66 -30 93 -38 115 -33
17 5 71 51 141 120 130 132 131 134 77 247 -19 41 -35 79 -35 87 0 7 9 35 21
61 20 47 22 49 102 76 127 42 127 43 127 239 0 192 3 187 -127 232 -81 28 -83
30 -103 78 -11 27 -20 55 -20 63 0 7 16 45 35 83 55 110 54 113 -83 251 -93
95 -123 119 -145 119 -15 0 -62 -18 -105 -39 l-78 -39 -54 23 -55 23 -31 87
c-44 126 -42 125 -235 125 -150 0 -159 -1 -182 -22z m278 -217 c26 -78 48
-111 76 -111 8 0 50 -16 94 -35 44 -19 87 -35 97 -35 9 0 49 16 90 35 l73 35
59 -59 59 -59 -32 -67 c-17 -37 -31 -79 -31 -94 0 -15 13 -58 30 -96 16 -39
30 -77 30 -86 0 -35 38 -65 114 -89 l76 -24 0 -81 0 -82 -82 -34 -82 -34 -39
-100 c-21 -55 -41 -109 -44 -120 -2 -12 11 -56 32 -100 l36 -79 -58 -58 -58
-57 -74 35 c-85 39 -99 41 -149 15 -20 -10 -63 -27 -94 -37 -72 -22 -90 -41
-118 -126 l-22 -68 -87 0 -88 0 -18 60 c-22 74 -50 120 -71 120 -9 0 -52 16
-97 35 -44 19 -91 35 -104 35 -13 0 -55 -16 -94 -35 l-70 -36 -54 52 c-30 29
-55 59 -55 68 0 9 14 45 30 79 36 77 37 96 6 159 -13 26 -29 67 -36 91 -15 58
-36 76 -119 103 l-71 23 0 86 0 87 60 18 c73 22 120 50 120 70 0 14 20 65 63
165 15 35 15 38 -23 122 l-38 86 57 56 57 57 76 -36 c89 -41 96 -41 146 -16
20 10 63 27 95 37 75 23 91 39 117 121 13 37 25 71 27 76 2 4 40 7 83 7 l78 0
27 -79z"/>
<path d="M3967 4469 c-32 -5 -86 -22 -121 -39 -313 -149 -361 -564 -91 -783
82 -65 148 -89 267 -95 108 -5 188 15 269 67 152 97 238 288 209 462 -43 254
-278 425 -533 388z m206 -178 c185 -90 235 -331 99 -482 -67 -75 -128 -103
-227 -103 -68 -1 -89 3 -137 27 -65 32 -121 90 -151 156 -29 65 -30 179 0 242
38 84 113 151 203 180 45 15 164 4 213 -20z"/>
<path d="M1465 4021 c-32 -13 -38 -26 -94 -187 l-52 -151 -55 -17 c-30 -9 -83
-30 -117 -45 l-62 -28 -137 68 c-76 38 -150 69 -165 69 -21 0 -64 -37 -215
-187 -104 -104 -191 -198 -195 -211 -3 -15 17 -68 66 -172 l72 -149 -29 -68
c-16 -37 -38 -90 -49 -118 l-19 -49 -148 -52 c-81 -29 -157 -60 -167 -70 -18
-16 -19 -34 -19 -284 0 -250 1 -268 19 -284 10 -10 85 -41 166 -69 l148 -52
48 -120 49 -120 -71 -146 c-55 -112 -70 -151 -64 -170 4 -13 91 -108 193 -211
148 -149 192 -188 213 -188 15 0 91 31 170 68 l144 69 60 -27 c33 -15 84 -35
113 -44 29 -10 56 -25 61 -34 5 -10 30 -79 56 -154 26 -75 56 -145 67 -155 18
-16 44 -18 284 -18 251 0 264 1 282 20 11 11 43 88 71 171 l52 151 55 17 c30
9 83 30 117 45 l61 27 136 -64 c74 -36 148 -68 164 -71 22 -5 33 -16 47 -48
l17 -41 -55 -115 c-39 -80 -54 -123 -50 -139 9 -34 308 -328 335 -328 12 0 73
24 136 54 l115 54 87 -37 86 -37 43 -119 c24 -66 51 -125 61 -132 13 -10 72
-13 229 -13 252 0 231 -11 290 152 l40 111 88 37 88 38 115 -55 c76 -37 122
-53 137 -49 12 3 91 74 175 159 115 117 152 160 152 179 0 14 -25 75 -55 136
l-54 112 28 62 c15 35 33 74 38 88 9 20 31 32 124 64 62 22 121 48 131 58 16
16 18 38 18 233 0 195 -2 217 -18 233 -10 10 -69 36 -131 58 -93 32 -115 44
-124 64 -5 14 -23 53 -38 88 l-28 62 54 112 c30 61 55 123 55 137 0 19 -36 61
-158 183 -103 103 -165 158 -179 158 -11 0 -69 -27 -128 -60 -59 -33 -110 -60
-114 -60 -3 0 -44 16 -91 35 l-84 34 -42 117 c-24 64 -50 124 -59 133 -13 14
-46 16 -229 16 -189 0 -216 -2 -233 -17 -11 -10 -37 -68 -59 -130 l-39 -113
-5 76 c-3 42 -11 83 -18 92 -7 8 -80 39 -162 67 -83 29 -153 58 -158 64 -5 6
-17 34 -27 61 -10 28 -31 76 -47 109 l-30 58 72 148 c53 110 70 153 65 172 -4
14 -87 105 -194 212 -144 143 -193 186 -213 186 -14 0 -90 -31 -169 -69 l-144
-69 -35 18 c-19 9 -69 30 -110 45 -41 15 -78 31 -82 34 -4 4 -31 72 -59 151
-28 80 -60 154 -70 165 -18 19 -34 20 -272 22 -138 1 -261 -2 -272 -6z m486
-306 c27 -77 55 -145 62 -151 7 -7 46 -22 87 -35 41 -13 112 -43 159 -66 46
-24 91 -43 100 -43 9 0 77 32 151 70 l135 70 128 -128 128 -128 -56 -134 c-30
-74 -55 -146 -55 -161 0 -14 17 -64 38 -110 22 -46 51 -116 66 -156 15 -39 34
-77 42 -84 8 -6 76 -33 152 -59 l137 -48 0 -182 0 -182 -140 -49 c-76 -27
-147 -57 -156 -66 -9 -10 -24 -45 -33 -78 -10 -33 -40 -107 -68 -164 l-51
-104 72 -145 73 -145 -128 -128 -127 -127 -140 69 c-76 38 -147 69 -156 69 -9
0 -53 -17 -97 -38 -43 -21 -115 -51 -159 -67 -44 -16 -87 -34 -96 -42 -8 -7
-23 -39 -33 -70 -10 -32 -32 -95 -48 -141 l-30 -82 -178 0 -179 0 -19 53 c-11
28 -32 90 -47 137 -15 47 -35 92 -44 101 -9 9 -47 26 -86 38 -38 13 -110 42
-158 67 -48 24 -95 44 -104 44 -9 0 -76 -32 -150 -71 l-134 -70 -127 122 c-70
67 -128 128 -130 136 -2 7 26 68 62 136 36 68 66 136 66 151 0 14 -15 57 -34
94 -18 37 -48 106 -66 154 -18 48 -39 93 -48 100 -8 7 -78 36 -156 64 l-141
51 0 183 0 183 139 47 c76 27 146 56 156 66 9 11 27 48 40 84 12 36 43 109 67
162 l45 97 -70 148 -70 148 128 129 127 128 138 -71 c75 -39 145 -71 154 -71
9 0 54 18 98 39 45 22 114 51 155 66 40 14 81 33 90 42 9 8 38 78 63 154 l47
139 180 -2 180 -3 49 -140z m1943 -1235 c21 -60 44 -114 50 -119 7 -6 52 -24
102 -41 49 -18 104 -40 122 -51 18 -10 43 -19 56 -19 13 0 69 23 126 51 l104
50 93 -93 93 -93 -50 -104 c-28 -57 -50 -114 -50 -127 0 -14 15 -55 34 -92 19
-37 39 -88 46 -112 20 -77 30 -85 150 -125 l110 -37 0 -133 0 -133 -109 -37
c-105 -35 -141 -56 -141 -86 -1 -14 -51 -147 -83 -221 l-16 -36 55 -113 55
-113 -93 -93 -93 -93 -104 50 c-57 28 -114 50 -127 50 -14 0 -50 -13 -82 -29
-31 -15 -88 -38 -125 -51 -41 -13 -73 -30 -81 -43 -8 -12 -29 -66 -47 -119
l-34 -98 -131 0 -132 0 -37 104 c-21 58 -45 111 -54 119 -9 8 -41 22 -71 32
-30 10 -90 34 -133 53 l-79 36 -107 -54 c-59 -29 -112 -51 -117 -49 -5 2 -49
45 -97 95 l-87 91 50 109 c27 60 50 115 50 122 0 7 -12 36 -26 64 -14 28 -33
70 -40 92 l-15 40 131 131 c106 107 131 137 132 161 0 17 -28 86 -71 172 l-71
142 46 108 c26 59 51 112 55 118 5 6 77 35 159 64 101 35 155 59 165 73 11 15
15 49 15 120 l0 98 60 25 c59 26 59 26 88 103 16 42 35 93 41 114 l13 37 132
0 132 0 38 -110z"/>
<path d="M1555 3081 c-269 -73 -463 -264 -537 -528 -27 -98 -29 -256 -5 -356
63 -257 256 -457 517 -539 108 -33 292 -33 400 0 209 66 367 198 459 386 54
109 74 197 74 326 0 159 -43 292 -138 425 -89 125 -210 215 -362 268 -77 27
-104 31 -213 34 -99 2 -139 -1 -195 -16z m321 -147 c258 -71 434 -299 434
-562 -1 -268 -200 -511 -465 -567 -88 -18 -142 -18 -230 0 -265 56 -464 299
-465 567 0 94 16 160 60 253 47 96 101 160 183 219 146 103 319 135 483 90z"/>
<path d="M3571 2004 c-104 -28 -181 -74 -266 -159 -121 -121 -175 -249 -175
-417 0 -186 77 -344 225 -465 229 -186 557 -173 774 32 74 71 121 143 159 243
22 57 25 84 26 182 1 96 -3 127 -23 188 -63 191 -226 345 -421 397 -70 19
-228 18 -299 -1z m241 -145 c129 -28 248 -121 306 -239 107 -218 16 -478 -206
-587 -66 -33 -85 -38 -167 -41 -141 -6 -234 30 -334 130 -173 173 -170 451 7
620 113 108 247 148 394 117z"/>
</g>
</svg>
