<?xml version="1.0" standalone="no"?>
<!DOCTYPE svg PUBLIC "-//W3C//DTD SVG 20010904//EN"
 "http://www.w3.org/TR/2001/REC-SVG-20010904/DTD/svg10.dtd">
<svg version="1.0" xmlns="http://www.w3.org/2000/svg"
 width="512.000000pt" height="512.000000pt" viewBox="0 0 512.000000 512.000000"
 preserveAspectRatio="xMidYMid meet">

<g transform="translate(0.000000,512.000000) scale(0.100000,-0.100000)"
fill="#000000" stroke="none">
<path d="M830 4837 c-87 -25 -155 -82 -202 -170 l-23 -42 -3 -1146 -2 -1147
-138 -4 c-133 -3 -139 -4 -212 -39 -122 -59 -202 -155 -236 -284 -20 -72 -20
-898 0 -970 34 -129 114 -225 236 -284 l75 -36 2205 -3 c1508 -1 2221 1 2255
8 149 31 280 159 321 314 20 73 20 898 0 971 -41 156 -166 280 -317 314 -25 6
-192 11 -387 11 l-342 0 2 1124 c3 1118 3 1125 24 1152 54 73 138 91 203 45
65 -46 61 21 61 -1096 l0 -1017 30 -30 c27 -26 36 -30 68 -25 20 4 45 16 55
28 16 20 17 80 15 1068 l-3 1046 -23 43 c-35 66 -88 119 -150 149 -47 23 -70
28 -132 27 -98 0 -162 -28 -228 -98 -94 -100 -87 13 -87 -1343 l0 -1192 23
-23 23 -23 412 -5 c398 -5 413 -6 452 -27 47 -25 95 -74 121 -123 18 -33 19
-65 19 -490 0 -447 0 -456 -22 -495 -25 -47 -74 -95 -123 -121 -34 -18 -109
-19 -2240 -19 -2131 0 -2206 1 -2240 19 -49 26 -98 74 -123 121 -22 39 -22 48
-22 495 0 447 0 456 22 495 25 47 74 95 123 121 34 18 97 19 1555 24 1172 4
1525 8 1541 17 42 24 47 91 9 128 l-24 25 -1316 0 -1315 0 0 1120 c0 1233 -4
1154 61 1201 65 46 149 28 203 -45 21 -27 21 -37 26 -1058 l5 -1030 24 -19
c32 -26 74 -24 108 5 l28 24 0 1034 c0 1176 7 1085 -87 1184 -80 84 -203 121
-308 91z"/>
<path d="M2443 4129 c-213 -27 -443 -136 -566 -268 -55 -59 -62 -97 -22 -136
41 -42 83 -34 152 26 133 116 293 188 469 209 219 27 447 -44 629 -196 93 -77
127 -83 170 -32 38 45 29 80 -36 141 -149 139 -355 233 -568 257 -97 11 -139
11 -228 -1z"/>
<path d="M2443 3676 c-80 -19 -196 -79 -250 -132 -35 -33 -43 -47 -43 -76 0
-46 26 -77 70 -84 30 -5 42 0 85 34 165 130 340 133 506 8 71 -54 99 -57 140
-17 43 44 39 81 -13 132 -121 117 -326 173 -495 135z"/>
<path d="M2483 3270 c-60 -36 -90 -108 -72 -172 48 -180 309 -151 309 35 0 60
-20 99 -67 132 -48 32 -123 34 -170 5z"/>
<path d="M762 1599 c-47 -14 -68 -65 -48 -113 20 -47 66 -59 219 -54 116 3
119 4 143 31 31 36 31 78 0 114 -24 28 -25 28 -153 30 -70 1 -143 -2 -161 -8z"/>
<path d="M1375 1603 c-65 -16 -88 -98 -39 -144 l26 -24 316 -3 c287 -2 320 -1
352 15 20 10 39 30 44 46 14 40 -3 79 -44 99 -31 16 -68 18 -335 17 -165 -1
-309 -3 -320 -6z"/>
<path d="M605 415 c-41 -40 -33 -105 16 -130 41 -22 637 -22 678 0 49 25 57
90 16 130 l-24 25 -331 0 -331 0 -24 -25z"/>
<path d="M3805 415 c-41 -40 -33 -105 16 -130 41 -22 637 -22 678 0 49 25 57
90 16 130 l-24 25 -331 0 -331 0 -24 -25z"/>
</g>
</svg>
