<?xml version="1.0" standalone="no"?>
<!DOCTYPE svg PUBLIC "-//W3C//DTD SVG 20010904//EN"
 "http://www.w3.org/TR/2001/REC-SVG-20010904/DTD/svg10.dtd">
<svg version="1.0" xmlns="http://www.w3.org/2000/svg"
 width="512.000000pt" height="512.000000pt" viewBox="0 0 512.000000 512.000000"
 preserveAspectRatio="xMidYMid meet">

<g transform="translate(0.000000,512.000000) scale(0.100000,-0.100000)"
fill="#000000" stroke="none">
<path d="M4315 4733 c-60 -19 -1044 -339 -2185 -709 -1884 -612 -2078 -677
-2102 -704 -16 -17 -28 -41 -28 -54 0 -12 63 -217 140 -454 l140 -430 0 -969
c0 -902 1 -970 18 -1003 11 -24 28 -39 52 -47 27 -9 575 -12 2313 -12 1978 -1
2282 1 2313 14 67 28 64 -21 64 1044 0 574 -4 970 -9 984 -6 14 -20 35 -32 46
-22 21 -31 21 -428 21 -223 0 -399 4 -391 9 8 4 193 66 410 136 503 162 497
160 515 195 8 16 15 37 15 47 0 28 -598 1864 -613 1881 -10 12 -68 43 -79 42
-2 -1 -52 -17 -113 -37z m314 -1004 c145 -445 262 -812 260 -814 -3 -2 -317
-105 -699 -229 l-694 -226 -1513 0 c-1430 0 -1513 1 -1521 18 -15 27 -235 712
-231 716 6 6 505 166 516 166 5 0 56 -143 114 -317 89 -271 108 -320 131 -337
55 -40 133 -12 152 53 8 29 -5 75 -94 347 -57 172 -101 316 -98 320 5 5 3385
1109 3409 1113 3 1 123 -364 268 -810z m-3589 -2043 l0 -575 23 -26 c14 -17
36 -28 63 -32 36 -5 46 -1 75 25 l34 30 3 576 2 576 1800 0 1800 0 -2 -852 -3
-853 -2175 0 -2175 0 -3 853 -2 852 280 0 280 0 0 -574z"/>
<path d="M2990 3809 c-608 -198 -1203 -391 -1323 -430 -202 -65 -220 -73 -238
-102 -35 -56 -12 -121 51 -147 24 -10 39 -9 92 8 2521 816 2591 840 2621 872
29 33 34 64 15 105 -13 30 -56 55 -90 54 -13 0 -520 -162 -1128 -360z"/>
<path d="M3966 3725 c-142 -46 -269 -91 -281 -99 -13 -8 -28 -31 -35 -50 -21
-63 27 -126 95 -126 13 0 122 32 242 71 120 39 229 75 243 79 86 26 120 74
100 136 -12 35 -60 74 -90 74 -8 -1 -131 -39 -274 -85z"/>
<path d="M2525 3255 c-5 -2 -208 -67 -450 -145 -242 -79 -457 -149 -478 -157
-39 -16 -67 -55 -67 -93 0 -50 49 -100 98 -100 9 0 231 70 492 155 517 167
520 169 520 240 0 55 -71 117 -115 100z"/>
<path d="M4320 3139 c-98 -33 -130 -62 -130 -115 0 -46 24 -80 65 -94 47 -15
218 38 258 81 38 41 37 90 -2 130 -38 38 -78 37 -191 -2z"/>
<path d="M3825 2980 c-109 -35 -140 -62 -140 -122 0 -33 6 -45 33 -69 40 -36
59 -36 175 1 111 36 142 61 142 122 0 33 -6 45 -33 69 -40 36 -61 36 -177 -1z"/>
<path d="M1651 1964 c-25 -21 -31 -33 -31 -66 0 -52 14 -77 55 -94 52 -21
2769 -21 2821 1 46 19 70 72 54 120 -23 70 93 65 -1464 65 l-1404 0 -31 -26z"/>
<path d="M1649 1581 c-48 -49 -38 -125 21 -156 44 -23 1006 -23 1050 0 59 31
69 107 21 156 l-29 29 -517 0 -517 0 -29 -29z"/>
<path d="M3869 1581 c-47 -47 -33 -132 26 -159 32 -15 561 -17 599 -2 14 5 35
24 46 42 27 43 20 84 -20 121 l-30 27 -296 0 -296 0 -29 -29z"/>
<path d="M3723 935 c-40 -17 -69 -71 -59 -110 4 -15 18 -38 31 -51 23 -23 30
-24 148 -24 120 0 125 1 150 25 33 34 40 72 19 115 -12 24 -28 39 -52 47 -49
17 -197 16 -237 -2z"/>
<path d="M4253 935 c-46 -20 -68 -68 -54 -116 18 -61 38 -69 176 -69 136 0
156 7 175 65 16 50 -11 105 -60 122 -49 16 -197 16 -237 -2z"/>
<path d="M1104 910 c-41 -16 -64 -59 -64 -117 0 -47 4 -59 29 -84 35 -34 93
-39 127 -11 68 55 55 176 -21 208 -39 16 -42 16 -71 4z"/>
</g>
</svg>
